# xmcd CD database file
#
# Track frame offsets:
#	150
#	18349
#	39247
#
# Disc length: 824 seconds
#
# Revision: 0
# Processed by: cddbd v1.5PL3 Copyright (c) Steve Scherf et al.
# Submitted via: CDex 1.51
#
DISCID=16033603
DTITLE=Reza Manzoori - ReStrung
DYEAR=2004
DGENRE=New Age
TTITLE0=Rain
TTITLE1=Summer Night
TTITLE2=Maryam
EXTD=YEAR: 2004
EXTT0=
EXTT1=
EXTT2=
PLAYORDER=
